<svg xmlns="http://www.w3.org/2000/svg" width="332" height="310" viewBox="0 0 332 310" version="1.1"><path d="M 239.949 18.579 C 235.563 20.402, 233 24.547, 233 29.816 C 233 33.241, 231.928 35.253, 225.624 43.662 C 213.863 59.349, 200.455 82.095, 176.058 127.750 C 167.942 142.939, 166.545 145, 164.370 145 C 158.325 145, 152.187 151.968, 153.265 157.606 C 153.654 159.638, 150.506 163.164, 132.600 180.752 C 120.983 192.163, 107.812 204.425, 103.333 208 C 88.533 219.811, 73.501 227.652, 62.405 229.348 C 58.738 229.909, 58.193 229.719, 57.198 227.535 C 54.560 221.746, 43.533 220.272, 38.467 225.031 C 30.351 232.656, 35.510 246, 46.574 246 C 50.221 246, 51.672 245.388, 54.868 242.500 C 57.528 240.098, 59.707 239, 61.820 239 C 71.281 239, 89.532 230.213, 105.797 217.826 C 114.013 211.568, 120.167 206.062, 141.852 185.560 L 147.204 180.500 144.708 185.500 C 133.726 207.501, 114.116 240.360, 104.274 253.250 C 100.407 258.314, 99.466 259, 96.392 259 C 85.444 259, 80.080 271.255, 87.595 279.099 C 92.528 284.248, 99.977 284.177, 105.223 278.930 C 107.909 276.244, 108.151 275.468, 107.778 270.732 C 107.390 265.813, 107.645 265.111, 112.036 259 C 120.152 247.705, 126.471 237.859, 133.215 226 C 141.619 211.221, 156.844 183.300, 160.889 175.250 C 163.637 169.779, 164.384 169, 166.880 169 C 173.228 169, 178.620 161.537, 177.607 154.150 C 176.989 149.637, 176.989 149.637, 199.244 127.527 C 233.231 93.763, 256.848 77.563, 275.239 75.402 C 280.728 74.757, 280.843 74.796, 282.426 77.856 C 287.359 87.396, 303.610 84.924, 305.598 74.331 C 306.484 69.606, 305.344 66.123, 301.837 62.848 C 297.196 58.513, 289.304 58.936, 283.709 63.820 C 282.717 64.686, 279.594 65.522, 276.709 65.694 C 257.692 66.826, 233.630 81.627, 200.117 112.808 L 190.113 122.116 199.155 105.308 C 212.495 80.510, 222.300 64.384, 231.400 52.277 C 239.456 41.558, 239.521 41.502, 243.332 41.838 C 248.498 42.293, 252.569 40.434, 254.991 36.514 C 259.202 29.701, 256.632 21.415, 249.364 18.379 C 245.327 16.692, 244.443 16.711, 239.949 18.579 M 153 29.008 C 133.829 30.871, 117.306 36.756, 100.998 47.528 C 94.547 51.790, 80.790 63.353, 80.185 65.022 C 80.011 65.501, 81.713 66.833, 83.966 67.983 C 88.062 70.072, 88.062 70.072, 94.781 64.362 C 108.371 52.811, 122.026 45.474, 137.696 41.302 C 146.345 39, 149.503 38.683, 164.500 38.613 C 183.294 38.525, 191.484 39.964, 205.675 45.849 L 212.850 48.825 215.457 44.885 C 218.065 40.945, 218.065 40.945, 211.282 37.892 C 202.106 33.760, 188.485 30.241, 177 29.033 C 166.560 27.936, 164.066 27.933, 153 29.008 M 148 58.485 C 133.585 61.727, 124.084 66.100, 112.012 75.051 C 103.620 81.274, 103.620 81.274, 105.936 83.150 C 110.282 86.668, 112.430 86.495, 118.174 82.161 C 125.683 76.496, 139.180 70.273, 148 68.409 C 159.545 65.968, 177.989 66.891, 188.938 70.457 C 197.088 73.112, 197.424 73.142, 198.761 71.353 C 202.279 66.647, 202.236 66.161, 198.121 64.062 C 186.405 58.085, 161.903 55.358, 148 58.485 M 38 64.935 C 29.356 67.574, 23.401 72.776, 19.608 81 C 16.672 87.367, 16.829 101.883, 19.933 111 C 22.906 119.732, 29.042 131.022, 35.330 139.330 C 40.440 146.081, 40.507 146.127, 41.132 143.330 C 42.708 136.266, 42.084 132.598, 38.363 127.072 C 25.216 107.551, 23.319 86.641, 33.887 77.748 C 37.778 74.474, 42.091 73.595, 51.095 74.239 C 69.908 75.585, 103.901 99.951, 135.748 134.918 C 141.550 141.288, 146.672 146.647, 147.130 146.827 C 148.213 147.253, 152.927 141.893, 152.968 140.189 C 152.986 139.468, 143.438 129.309, 131.750 117.614 C 116.580 102.433, 106.780 93.571, 97.500 86.642 C 83.528 76.211, 68.454 68.087, 58.356 65.546 C 51.919 63.927, 42.254 63.637, 38 64.935 M 140.500 85.403 C 138.850 86.131, 136.606 87.729, 135.513 88.954 C 133.624 91.072, 133.044 91.147, 123.763 90.483 C 118.393 90.099, 114 90.003, 114 90.270 C 114 90.537, 116.527 92.835, 119.615 95.378 C 124.144 99.106, 125.976 100, 129.089 100 C 132.326 100, 133.188 100.462, 134.430 102.865 C 136.001 105.902, 141.338 109, 145 109 C 148.563 109, 153.460 106.184, 155.294 103.080 C 159.161 96.534, 156.410 88.323, 149.364 85.379 C 145.354 83.703, 144.343 83.706, 140.500 85.403 M 260 88.202 C 258.075 89.395, 256.359 90.466, 256.186 90.583 C 256.013 90.699, 257.490 94.008, 259.468 97.936 C 268.242 115.359, 271.595 131.582, 270.724 152.395 C 269.773 175.140, 262.763 194.953, 249.397 212.674 L 243.188 220.906 246.527 223.453 C 248.364 224.854, 250.234 225.989, 250.683 225.975 C 251.896 225.938, 260.269 214.504, 264.945 206.500 C 283.882 174.082, 285.514 130.226, 269.048 96.250 C 266.316 90.612, 263.950 86.008, 263.790 86.017 C 263.631 86.026, 261.925 87.009, 260 88.202 M 61.527 94.750 C 53.068 112.031, 49.642 126.988, 49.674 146.500 C 49.687 154.486, 50.347 162.885, 51.385 168.275 C 54.310 183.470, 61.860 202.213, 69.382 212.952 C 71.097 215.401, 72.791 217.827, 73.147 218.344 C 73.665 219.097, 76.715 217.524, 80.887 214.354 C 81.100 214.192, 79.466 211.234, 77.256 207.780 C 70.804 197.694, 68.360 192.962, 65.613 185.234 C 55.319 156.266, 57.034 124.710, 70.337 98.318 L 73.957 91.136 70.610 89.068 C 68.770 87.931, 66.827 87, 66.292 87 C 65.758 87, 63.614 90.487, 61.527 94.750 M 85.486 110.731 C 73.678 138.219, 76.245 171.269, 92.072 195.514 C 94.760 199.631, 97.282 203, 97.675 203 C 98.890 203, 104 197.696, 104 196.435 C 104 195.781, 103.248 194.627, 102.328 193.872 C 99.588 191.623, 91.308 173.046, 89.593 165.303 C 87.030 153.722, 87.437 136.165, 90.517 125.540 C 91.901 120.763, 93.959 115.040, 95.091 112.821 C 97.149 108.788, 97.149 108.788, 94.825 106.302 C 89.957 101.097, 89.541 101.294, 85.486 110.731 M 235.333 104.611 C 232.165 107.129, 232.165 107.129, 235.060 113.314 C 242.348 128.891, 244.329 149.906, 240.072 166.500 C 237.600 176.136, 230.481 190.943, 225.572 196.659 C 223.607 198.946, 222 201.225, 222 201.722 C 222 202.219, 223.387 203.948, 225.082 205.563 C 228.164 208.500, 228.164 208.500, 230.623 205.500 C 235.732 199.268, 242.440 188.486, 244.720 182.841 C 250.089 169.548, 251.378 162.466, 251.335 146.500 C 251.298 133.211, 250.991 130.497, 248.638 122.703 C 245.934 113.749, 240.569 101.962, 239.236 102.047 C 238.831 102.073, 237.075 103.227, 235.333 104.611 M 204.844 142.255 C 203.384 143.490, 201.712 145.452, 201.131 146.616 C 200.350 148.178, 198.757 148.907, 195.050 149.399 C 190.711 149.975, 189.686 150.568, 187.514 153.765 C 184.255 158.561, 184.143 161.465, 187.250 160.624 C 188.488 160.289, 192.077 159.474, 195.228 158.812 C 200.606 157.682, 201.096 157.742, 203.271 159.784 C 211.470 167.487, 224 162.373, 224 151.323 C 224 147.512, 223.464 146.264, 220.600 143.400 C 217.666 140.466, 216.536 140.001, 212.350 140.005 C 208.784 140.009, 206.797 140.604, 204.844 142.255 M 177.209 172.054 C 173.124 175.767, 172.228 174.347, 192.109 195.677 C 231.069 237.476, 260.332 257.358, 283 257.427 C 292.141 257.455, 298.256 254.856, 303.520 248.706 C 309.771 241.403, 311.680 228.981, 308.474 216.460 C 305.746 205.802, 296.507 188.543, 287.643 177.545 C 285.261 174.590, 285.261 174.590, 283.593 180.329 C 281.795 186.515, 281.745 186.323, 286.857 193 C 295.138 203.815, 301.920 223.521, 300.435 232.448 C 298.604 243.446, 291.864 248.664, 280.648 247.764 C 269.573 246.875, 253.723 238.982, 238.311 226.681 C 228.311 218.699, 197.504 188.282, 187.994 177 C 184.516 172.875, 181.408 169.402, 181.086 169.281 C 180.764 169.161, 179.019 170.409, 177.209 172.054 M 163.898 193.287 C 157.272 197.746, 156.881 207.198, 163.106 212.436 C 167.303 215.968, 174.006 215.995, 178.589 212.500 C 181.327 210.412, 182.963 210, 188.526 210 L 195.186 210 191 205 C 188.107 201.544, 186.070 200, 184.407 200 C 183.013 200, 182 199.412, 182 198.604 C 182 197.836, 180.409 195.811, 178.465 194.104 C 174.049 190.226, 168.877 189.936, 163.898 193.287 M 197.975 217.454 C 193.463 219.910, 182.685 222.896, 174.397 223.988 C 166.839 224.983, 154.241 224.318, 146.938 222.538 C 144.876 222.036, 144.153 222.558, 142.248 225.924 C 139.995 229.905, 139.995 229.905, 143.748 230.954 C 162.575 236.219, 184.302 234.361, 202.826 225.904 L 209.500 222.857 205.500 219.443 C 200.929 215.543, 201.305 215.642, 197.975 217.454 M 222 235.828 C 222 236.359, 227.297 243.252, 233.772 251.146 C 252.210 273.628, 261 284.674, 261 285.364 C 261 285.714, 255.923 286, 249.717 286 L 238.434 286 221.843 266.250 C 212.233 254.809, 204.674 246.648, 203.876 246.853 C 203.119 247.047, 198.225 248.313, 193 249.666 C 175.001 254.329, 153.131 253.871, 134.568 248.442 C 131.856 247.649, 129.553 247, 129.451 247 C 129.349 247, 128.086 248.782, 126.645 250.960 L 124.024 254.921 131.762 257.346 C 149.821 263.006, 172.189 264.036, 190.500 260.051 C 196 258.854, 200.983 257.790, 201.574 257.687 C 202.164 257.584, 209.613 265.825, 218.127 276 L 233.606 294.500 255.053 294.500 C 282.757 294.500, 282.333 295.942, 261.944 271.065 C 248.725 254.936, 246.001 252.143, 240.167 248.740 C 236.500 246.600, 230.912 242.602, 227.750 239.856 C 224.588 237.110, 222 235.297, 222 235.828" stroke="none" fill="#b02bac" fill-rule="evenodd"/></svg>
